<svg xmlns="http://www.w3.org/2000/svg">
  <defs>
    <symbol id="keyboard" viewBox="0 0 24 24">
      <rect x="2" y="7" width="20" height="12" rx="1.85"/>
      <line x1="17" y1="11" x2="18" y2="11"/>
      <line x1="6" y1="11" x2="8" y2="11"/>
      <line x1="8" y1="15" x2="16" y2="15"/>
      <line x1="12" y1="11" x2="13" y2="11"/>
    </symbol>

    <symbol id="keyboard-hide" viewBox="0 0 24 24">
      <rect x="2" y="4" width="20" height="12" rx="1.85"/>
      <line x1="17" y1="8" x2="18" y2="8"/>
      <line x1="6" y1="8" x2="8" y2="8"/>
      <line x1="8" y1="12" x2="16" y2="12"/>
      <line x1="12" y1="8" x2="11" y2="8"/>
      <polyline points="15 20 12 22 9 20"/>
    </symbol>

    <symbol id="save-and-next" viewBox="0 0 24 24">
      <path d="M21,8v3h-7c-1,0-2,0.9-2,2v6c0,1-0.9,2-2,2h-5c-1,0-2-0.9-2-2V5c0-1,0.9-2,2-2h11L21,8z"/>
      <polyline points="11,13 7,13 7,21 "/>
      <polyline points="18,15 21,18 18,21 "/>
    </symbol>
  </defs>
</svg>
