<svg xmlns="http://www.w3.org/2000/svg" viewBox="0 0 48.95 54.86"><defs><style>.cls-1{fill:#bf9577;fill-rule:evenodd;}</style></defs><g id="Layer_2" data-name="Layer 2"><g id="Layer_1-2" data-name="Layer 1"><g id="final_" data-name="final?"><path class="cls-1" d="M35.6,2.65C19.1-6.55-.1,9.45,0,32a158.13,158.13,0,0,0,2.1,21.4,1.78,1.78,0,0,0,2.6,1.3l4.5-2.2a7,7,0,0,0,3.8-5.9c.6-14.6,5.7-23.5,9.4-28.2a1,1,0,0,1,1.2-.3l2.8,1.3a1,1,0,0,1,.2,1.7c-5.9,5.1-6.2,13.7-2,18.8,5.3,6.4,14.3,3.8,19.3-3.7C52.9,22.55,49.7,10.55,35.6,2.65Zm-2.6,37a6.9,6.9,0,1,1,6.9-6.9A6.91,6.91,0,0,1,33,39.65Z"/></g></g></g></svg>