<?xml version="1.0" encoding="utf-8"?>
<!-- Generator: Adobe Illustrator 25.0.0, SVG Export Plug-In . SVG Version: 6.00 Build 0)  -->
<svg version="1.1" xmlns="http://www.w3.org/2000/svg" xmlns:xlink="http://www.w3.org/1999/xlink" x="0px" y="0px"
	 viewBox="0 0 595.3 841.9" style="enable-background:new 0 0 595.3 841.9;" xml:space="preserve">
<style type="text/css">
	.st0{display:none;}
	.st1{display:inline;fill-rule:evenodd;clip-rule:evenodd;fill:#3A3B59;}
	.st2{fill-rule:evenodd;clip-rule:evenodd;fill:#3A3B59;}
	.st3{fill-rule:evenodd;clip-rule:evenodd;fill:#BF9577;}
</style>
<g id="Layer_2" class="st0">
	<rect x="19.3" y="9.3" class="st1" width="576" height="356.9"/>
</g>
<g id="final_x3F_" xmlns:vectornator="http://vectornator.io">
	<path class="st2" d="M75.7,23.4C59.2,14.2,40,30.2,40.1,52.7c0,5.9,1.1,15.3,2.1,21.4c0.2,1.2,1.5,1.9,2.6,1.3l4.5-2.2
		c2.2-1.1,3.7-3.4,3.8-5.9c0.6-14.6,5.7-23.5,9.4-28.2c0.3-0.4,0.8-0.5,1.2-0.3l2.8,1.3c0.7,0.3,0.8,1.2,0.2,1.7
		c-5.9,5.1-6.2,13.7-2,18.8c5.3,6.4,14.3,3.8,19.3-3.7C93,43.3,89.8,31.3,75.7,23.4z M73.1,60.4c-3.8,0-6.9-3.1-6.9-6.9
		c0-3.8,3.1-6.9,6.9-6.9c3.8,0,6.9,3.1,6.9,6.9C80.1,57.3,76.9,60.4,73.1,60.4z"/>
</g>
<g id="final_x3F__copy" xmlns:vectornator="http://vectornator.io">
	<circle class="st3" cx="211.1" cy="53.5" r="6.9"/>
	<path class="st3" d="M221.9,56.8c-3.7,7-11,11.7-19.4,11.7c-4.2,0-8.1-1.2-11.4-3.2c1-13.4,5.7-21.8,9.3-26.2
		c0.3-0.4,0.8-0.5,1.2-0.3l2.8,1.3c0.7,0.3,0.8,1.2,0.2,1.7c-5.9,5.1-6.2,13.7-2,18.8C207.9,66.9,216.9,64.4,221.9,56.8
		C221.9,56.9,221.9,56.9,221.9,56.8z"/>
	<path class="st3" d="M213.7,23.4c-16.5-9.2-35.7,6.8-35.7,29.3c0,5.9,1.1,15.3,2.1,21.4c0.2,1.2,1.5,1.9,2.6,1.3l4.5-2.2
		c2.2-1.1,3.7-3.4,3.8-5.9c0-0.7,0.1-1.3,0.1-2c-6.3-3.9-10.6-10.8-10.6-18.8c0-12.1,9.8-22,22-22c12.1,0,22,9.8,22,22
		c0,3.7-0.9,7.2-2.6,10.3C230.9,43.3,227.8,31.3,213.7,23.4z"/>
	<path class="st2" d="M202.5,24.6c-12.1,0-22,9.8-22,22c0,8,4.2,14.9,10.6,18.8c1-13.4,5.7-21.8,9.3-26.2c0.3-0.4,0.8-0.5,1.2-0.3
		l2.8,1.3c0.7,0.3,0.8,1.2,0.2,1.7c-5.9,5.1-6.2,13.7-2,18.8c5.3,6.4,14.3,3.8,19.3-3.7c0,0,0,0,0.1-0.1c1.6-3.1,2.6-6.6,2.6-10.3
		C224.5,34.4,214.7,24.6,202.5,24.6z M211.1,60.4c-3.8,0-6.9-3.1-6.9-6.9c0-3.8,3.1-6.9,6.9-6.9c3.8,0,6.9,3.1,6.9,6.9
		C218,57.3,214.9,60.4,211.1,60.4z"/>
</g>
<g id="final_x3F__copy_2" xmlns:vectornator="http://vectornator.io">
	<circle class="st2" cx="133.9" cy="44.2" r="22"/>
	<path class="st3" d="M132.6,24.9c-9.7,0.6-17.5,8.6-17.8,18.3c-0.2,6.6,2.9,12.6,7.9,16.1c0.5,0.4,1.3,0,1.4-0.6
		c1.1-10.8,5-17.6,7.9-21.3c0.3-0.3,0.7-0.4,1-0.2l2.4,1.2c0.6,0.3,0.7,1,0.2,1.4c-5.1,4.5-5.4,11.9-1.7,16.3
		c4.6,5.5,12.4,3.3,16.7-3.2c0,0,0,0,0,0c1.4-2.7,2.2-5.7,2.2-8.9C152.9,33,143.7,24.2,132.6,24.9z M142.5,55.8
		c-4.3,0.8-7.9-2.9-7.1-7.1c0.5-2.4,2.4-4.3,4.7-4.7c4.2-0.8,7.9,2.8,7.1,7.1C146.8,53.5,144.9,55.4,142.5,55.8z"/>
</g>
</svg>
